<svg
   version="1.1"
   viewBox="0 0 886.92446 173.36768"
   xmlns="http://www.w3.org/2000/svg">
  <defs
     id="defs6">
    <clipPath
       clipPathUnits="userSpaceOnUse"
       id="clipPath16">
      <path
         d="M 0,600 H 800 V 0 H 0 Z"
         id="path14" />
    </clipPath>
  </defs>
  <g
     id="g8"
     transform="matrix(1.3333333,0,0,-1.3333333,-89.871464,486.6842)">
    <g
       id="g10">
      <g
         id="g12"
         clip-path="url(#clipPath16)">
        <g
           id="g18"
           transform="translate(333.1055,312.624)">
          <path
             d="m 0,0 c -1.266,-0.592 -1.266,-0.592 -11.493,-0.677 h -24.254 v 9.381 h 24.254 C -1.521,8.619 -1.521,8.619 -0.676,8.451 1.269,8.027 2.028,6.845 2.028,4.225 2.028,1.858 1.437,0.59 0,0 m -35.747,28.9 h 24.171 c 7.773,-0.083 8.027,-0.083 8.956,-0.253 1.776,-0.422 2.537,-1.689 2.537,-4.056 0,-2.028 -0.593,-3.464 -1.86,-3.971 -1.099,-0.507 -3.549,-0.677 -9.633,-0.677 H -35.747 Z M 8.959,14.535 c 5.662,1.606 7.605,4.901 7.605,12.93 0,10.224 -3.042,13.775 -12.253,14.451 -2.535,0.168 -2.535,0.168 -15.887,0.253 h -40.482 v -56.366 h 40.565 c 18.931,0.083 19.86,0.168 23.072,1.267 4.985,1.689 7.098,5.83 7.098,13.859 0,9.043 -2.281,12.338 -9.718,13.606"
             style="fill:#cb9cf2;fill-opacity:1;fill-rule:nonzero;stroke:none"
             id="path20" />
        </g>
        <g
           id="g22"
           transform="translate(378.9155,320.9043)">
          <path
             d="M 0,0 H 43.183 V 12.423 H 0 v 8.197 h 45.466 v 13.269 h -62.367 v -56.367 h 62.704 v 13.52 L 0,-8.958 Z"
             style="fill:#cb9cf2;fill-opacity:1;fill-rule:nonzero;stroke:none"
             id="path24" />
        </g>
        <g
           id="g26"
           transform="translate(434.0186,340.4272)">
          <path
             d="m 0,0 h 25.098 v -42 h 18 V 0 H 68.197 V 14.366 H 0 Z"
             style="fill:#cb9cf2;fill-opacity:1;fill-rule:nonzero;stroke:none"
             id="path28" />
        </g>
        <g
           id="g30"
           transform="translate(511.8936,340.4272)">
          <path
             d="m 0,0 h 25.1 v -42 h 18 V 0 H 68.197 V 14.366 H 0 Z"
             style="fill:#cb9cf2;fill-opacity:1;fill-rule:nonzero;stroke:none"
             id="path32" />
        </g>
        <g
           id="g34"
           transform="translate(607.0107,320.9043)">
          <path
             d="M 0,0 H 43.184 V 12.423 H 0 V 20.62 H 45.465 V 33.889 H -16.9 v -56.367 h 62.704 v 13.52 L 0,-8.958 Z"
             style="fill:#cb9cf2;fill-opacity:1;fill-rule:nonzero;stroke:none"
             id="path36" />
        </g>
        <g
           id="g38"
           transform="translate(713.583,327.8359)">
          <path
             d="M 0,0 C -1.183,-0.846 -1.183,-0.846 -9.804,-1.014 H -33.973 V 12.845 H -9.804 C -2.028,12.76 -1.774,12.76 -0.593,12.253 1.182,11.492 1.859,9.886 1.859,6.083 1.859,2.535 1.353,0.844 0,0 m 8.535,-7.607 c 3.381,0.507 4.986,1.099 6.591,2.367 3.044,2.281 3.888,5.493 3.888,13.859 0,9.803 -1.268,13.522 -5.577,16.14 -3.634,2.199 -3.634,2.199 -23.072,2.199 h -41.492 v -56.367 h 17.154 v 14.281 h 24.254 c 7.099,0 8.366,-0.169 9.55,-1.521 1.351,-1.436 1.69,-3.464 1.69,-9.804 v -2.956 h 16.903 v 5.238 c 0.336,13.015 -1.185,15.55 -9.889,16.564"
             style="fill:#cb9cf2;fill-opacity:1;fill-rule:nonzero;stroke:none"
             id="path40" />
        </g>
        <g
           id="g42"
           transform="translate(281.0479,245.7266)">
          <path
             d="m 0,0 h 10.549 v 12.005 h 24.788 v 7.951 H 10.549 v 6.549 h 26.088 v 8.158 H 0 Z"
             style="fill:#374a67;fill-opacity:1;fill-rule:nonzero;stroke:none"
             id="path44" />
        </g>
        <g
           id="g46"
           transform="translate(359.3042,263.8125)">
          <path
             d="M 0,0 C -0.727,-0.521 -0.727,-0.521 -6.029,-0.624 H -20.891 V 7.898 H -6.029 C -1.247,7.847 -1.091,7.847 -0.364,7.534 0.727,7.067 1.144,6.079 1.144,3.741 1.144,1.559 0.832,0.521 0,0 m 11.692,5.3 c 0,6.028 -0.779,8.315 -3.429,9.927 -2.235,1.35 -2.235,1.35 -14.188,1.35 H -31.44 v -34.663 h 10.549 v 8.784 h 14.915 c 4.365,0 5.144,-0.105 5.872,-0.937 0.831,-0.883 1.039,-2.13 1.039,-6.027 v -1.82 H 11.33 v 3.223 c 0.207,8.003 -0.729,9.561 -6.081,10.184 2.079,0.313 3.066,0.677 4.053,1.456 1.872,1.403 2.39,3.378 2.39,8.523"
             style="fill:#374a67;fill-opacity:1;fill-rule:nonzero;stroke:none"
             id="path48" />
        </g>
        <g
           id="g50"
           transform="translate(417.3975,255.4453)">
          <path
             d="m 0,0 c -1.403,-1.04 -3.117,-1.246 -11.589,-1.246 -8.731,0 -10.393,0.155 -11.796,1.246 -1.247,0.986 -1.559,2.392 -1.559,6.703 0,4.417 0.207,6.393 0.83,7.587 1.041,2.028 2.029,2.185 12.422,2.185 9.666,0 10.809,-0.157 12.004,-1.561 C 1.247,13.771 1.559,11.796 1.559,6.652 1.559,2.442 1.196,0.936 0,0 m 8.679,23.074 c -2.651,2.027 -5.873,2.391 -20.371,2.391 -14.501,0 -17.722,-0.364 -20.371,-2.391 -2.652,-2.026 -3.432,-5.561 -3.432,-15.227 0,-10.187 0.729,-13.616 3.432,-15.695 2.649,-2.026 5.87,-2.39 20.474,-2.39 14.344,0 17.617,0.364 20.268,2.39 2.651,2.027 3.43,5.508 3.43,15.487 0,9.926 -0.779,13.409 -3.43,15.435"
             style="fill:#374a67;fill-opacity:1;fill-rule:nonzero;stroke:none"
             id="path52" />
        </g>
        <g
           id="g54"
           transform="translate(479.1797,254.5615)">
          <path
             d="m 0,0 h -1.092 l -18.136,25.828 h -18.5 V -8.835 h 10.757 l -0.26,25.882 h 1.143 L -7.847,-8.835 H 10.498 V 25.828 H -0.26 Z"
             style="fill:#374a67;fill-opacity:1;fill-rule:nonzero;stroke:none"
             id="path56" />
        </g>
        <g
           id="g58"
           transform="translate(499.8555,271.5557)">
          <path
             d="M 0,0 H 15.436 V -25.829 H 26.504 V 0 H 41.938 V 8.834 H 0 Z"
             style="fill:#374a67;fill-opacity:1;fill-rule:nonzero;stroke:none"
             id="path60" />
        </g>
        <g
           id="g62"
           transform="translate(544.1787,254.666)">
          <path
             d="M 0,0 H 21.932 V 7.015 H 0.053 Z"
             style="fill:#374a67;fill-opacity:1;fill-rule:nonzero;stroke:none"
             id="path64" />
        </g>
        <g
           id="g66"
           transform="translate(586.7373,259.5508)">
          <path
             d="M 0,0 H 26.555 V 7.639 H 0 v 5.042 h 27.958 v 8.158 h -38.352 v -34.663 h 38.56 v 8.316 L 0,-5.508 Z"
             style="fill:#374a67;fill-opacity:1;fill-rule:nonzero;stroke:none"
             id="path68" />
        </g>
        <g
           id="g70"
           transform="translate(663.7461,254.5615)">
          <path
             d="m 0,0 h -1.091 l -18.137,25.828 h -18.5 V -8.835 h 10.757 l -0.26,25.882 h 1.143 L -7.847,-8.835 H 10.498 V 25.828 H -0.26 Z"
             style="fill:#374a67;fill-opacity:1;fill-rule:nonzero;stroke:none"
             id="path72" />
        </g>
        <g
           id="g74"
           transform="translate(711.9648,254.5615)">
          <path
             d="m 0,0 h -14.707 v 17.149 h 14.603 c 6.444,0 7.847,-0.208 8.938,-1.455 1.041,-1.143 1.403,-3.066 1.403,-7.328 C 10.237,0.52 9.563,0 0,0 m 19.645,19.279 c -1.04,3.223 -3.327,5.199 -6.756,5.873 -2.963,0.623 -4.159,0.676 -12.993,0.676 H -25.1 V -8.835 h 24.996 c 11.693,0 14.76,0.521 17.41,2.911 2.547,2.338 3.326,5.873 3.326,14.914 0,5.665 -0.208,7.848 -0.987,10.289"
             style="fill:#374a67;fill-opacity:1;fill-rule:nonzero;stroke:none"
             id="path76" />
        </g>
        <g
           id="g78"
           transform="translate(212.8799,346.854)">
          <path
             d="m 0,0 c -2.997,2.958 -7.823,2.923 -10.777,-0.074 -2.955,-2.996 -2.923,-7.821 0.074,-10.777 l 36.501,-36.003 -36.501,-36.003 c -2.997,-2.956 -3.029,-7.78 -0.074,-10.777 1.491,-1.513 3.458,-2.27 5.426,-2.27 1.933,0 3.866,0.731 5.351,2.196 l 47.502,46.854 z"
             style="fill:#374a67;fill-opacity:1;fill-rule:nonzero;stroke:none"
             id="path80" />
        </g>
        <g
           id="g82"
           transform="translate(125.6836,346.7803)">
          <path
             d="M 0,0 C -2.956,2.996 -7.781,3.029 -10.777,0.074 L -58.28,-46.78 -10.777,-93.635 c 1.485,-1.465 3.418,-2.195 5.351,-2.195 1.968,0 3.935,0.758 5.426,2.269 2.955,2.998 2.922,7.822 -0.074,10.778 l -36.502,36.003 36.502,36.002 C 2.922,-7.822 2.955,-2.997 0,0"
             style="fill:#374a67;fill-opacity:1;fill-rule:nonzero;stroke:none"
             id="path84" />
        </g>
        <g
           id="g86"
           transform="translate(184.7764,364.6514)">
          <path
             d="m 0,0 c -4.006,1.277 -8.296,-0.934 -9.576,-4.944 l -36.62,-114.781 c -1.279,-4.01 0.934,-8.297 4.944,-9.577 0.77,-0.246 1.55,-0.362 2.318,-0.362 3.227,0 6.225,2.066 7.259,5.306 L 4.944,-9.577 C 6.224,-5.566 4.01,-1.279 0,0"
             style="fill:#cb9cf2;fill-opacity:1;fill-rule:nonzero;stroke:none"
             id="path88" />
        </g>
      </g>
    </g>
  </g>
</svg>
